# xmcd CD database file
#
# Track frame offsets:
#	150
#	16225
#	35974
#	51505
#	66295
#	88581
#	110440
#	133137
#	156455
#	170717
#	187760
#	201434
#
# Disc length: 2959 seconds
#
# Revision: 0
# Processed by: cddbd v1.5.1PL2 Copyright (c) Steve Scherf et al.
# Submitted via: CDex 1.51
#
DISCID=b30b8d0c
DTITLE=Tal Farlow - Tal´s Blues
DYEAR=1900
DGENRE=Jazz
TTITLE0=my old flame
TTITLE1=and she remembers me
TTITLE2=strike up the band
TTITLE3=skylark
TTITLE4=have you met miss jones?
TTITLE5=cherokee
TTITLE6=autumn in new york
TTITLE7=tal´s blues
TTITLE8=i like recognize the tune
TTITLE9=there will never be another you
TTITLE10=just one of those things
TTITLE11=tenderly
EXTD=
EXTT0=
EXTT1=
EXTT2=
EXTT3=
EXTT4=
EXTT5=
EXTT6=
EXTT7=
EXTT8=
EXTT9=
EXTT10=
EXTT11=
PLAYORDER=
